<svg xmlns="http://www.w3.org/2000/svg" viewBox="0 0 2459 837" width="2459" height="837">
	<defs>
		<clipPath clipPathUnits="userSpaceOnUse" id="cp1">
			<path d="M-169 -460L2975 -460L2975 1524L-169 1524Z" />
		</clipPath>
	</defs>
	<style>
		tspan { white-space:pre }
		.shp0 { fill: #fe578b } 
		.shp1 { fill: #2c2e35 } 
	</style>
	<g id="Page 2" clip-path="url(#cp1)">
		<path id="Path 19" class="shp0" d="M444.37 191.49L327.83 0.46L211.29 191.49L327.83 686.04L444.37 191.49Z" />
		<path id="Path 20" class="shp1" d="M108.19 511.57C108.19 463.13 123.98 418.59 150.75 382.46L265.69 514.91L219.43 321.3L193.86 214.19C193.86 214.19 193.85 214.19 193.84 214.2L193.82 214.09L193.75 214.24C79.65 265.35 0.23 378.95 0.23 510.97C0.23 685.15 138.43 827.39 312.25 836.15L312.25 729.63C198.11 721.03 108.19 626.72 108.19 511.57ZM658.26 510.97C658.26 378.16 577.87 264 462.66 213.34L460.59 222.08L390.63 514.91L506.62 381.26C534 417.65 550.3 462.69 550.3 511.57C550.3 626.72 460.37 721.03 346.24 729.62L346.24 836.15C520.05 827.39 658.26 685.15 658.26 510.97ZM735.99 570.99L872.49 570.99L872.49 530.64L735.99 530.64L735.99 570.99ZM1680.51 570.99L1817.01 570.99L1817.01 530.64L1680.51 530.64L1680.51 570.99Z" />
		<path id="Path 21" class="shp0" d="M1216.8 479.66L1260.16 433.91L1260.16 418.1L1216.8 418.1L1216.8 479.66ZM1216.8 620.38L1260.16 575.67L1260.16 452.24L1216.8 497.42L1216.8 620.38Z" />
		<path id="Path 22" class="shp1" d="M964.2 575.67L1007.56 575.67L1007.56 558.32L1007.53 558.32L1007.53 418.47L1007.56 418.47L1007.56 418.09L964.2 418.09L964.2 575.67ZM1123.42 475.43L1018.94 475.43L1018.94 518.33L1123.42 518.33L1123.42 575.67L1166.87 575.67L1166.87 418.09L1123.42 418.09L1123.42 475.43ZM1368.2 475.43L1368.2 518.33L1499.62 518.33C1509.35 517.7 1514.2 512.92 1514.2 504L1514.2 461L1514.2 432.03C1514.2 424.33 1507.9 418.09 1500.12 418.09L1326.11 418.09C1316.39 418.61 1311.53 422.68 1311.53 430.31L1311.53 575.67L1354.88 575.67L1354.88 538.57L1354.88 518.33L1354.88 475.43L1354.88 465.34L1354.88 461L1470.85 461L1470.76 475.43L1368.2 475.43ZM731.26 434.27L731.26 557.42C731.26 565.87 735.84 570.39 744.98 570.99L772.04 570.99L772.04 530.64L772.04 475.3L772.04 463.13L921.91 463.13L921.91 422.77L744.98 422.77C735.84 423.26 731.26 427.08 731.26 434.27Z" />
		<path id="Path 23" class="shp0" d="M2161.32 479.66L2204.68 433.91L2204.68 418.1L2161.32 418.1L2161.32 479.66ZM2161.32 615.54L2204.68 575.67L2204.68 452.24L2161.32 497.42L2161.32 615.54Z" />
		<path id="Path 24" class="shp1" d="M1908.73 575.67L1952.08 575.67L1952.08 558.32L1952.06 558.32L1952.06 418.47L1952.08 418.47L1952.08 418.09L1908.73 418.09L1908.73 575.67ZM2067.95 475.43L1963.47 475.43L1963.47 518.33L2067.95 518.33L2067.95 575.67L2111.4 575.67L2111.4 418.09L2067.95 418.09L2067.95 475.43ZM2444.65 418.1L2270.64 418.1C2260.92 418.61 2256.06 422.68 2256.06 430.32L2256.06 575.67L2299.41 575.67L2299.41 538.57L2299.41 518.34L2299.41 475.43L2299.41 465.34L2299.41 461L2415.38 461L2415.29 475.43L2312.73 475.43L2312.73 518.34L2444.15 518.34C2453.87 517.7 2458.73 512.92 2458.73 504L2458.73 461L2458.73 432.03C2458.73 424.33 2452.42 418.1 2444.65 418.1ZM1675.79 434.27L1675.79 557.42C1675.79 565.87 1680.36 570.39 1689.51 570.99L1716.57 570.99L1716.57 530.64L1716.57 475.3L1716.57 463.13L1866.43 463.13L1866.43 422.77L1689.51 422.77C1680.36 423.26 1675.79 427.08 1675.79 434.27ZM2031.6 634.45C2028.94 634.45 2027.61 635.76 2027.61 638.39L2027.61 642.34C2027.61 644.97 2028.94 646.29 2031.6 646.29C2034.25 646.29 2035.59 644.97 2035.59 642.34L2035.59 638.39C2035.59 635.76 2034.25 634.45 2031.6 634.45ZM2031.6 658.13C2028.94 658.13 2027.61 659.44 2027.61 662.07L2027.61 709.42C2027.61 712.05 2028.94 713.37 2031.6 713.37C2034.25 713.37 2035.59 712.05 2035.59 709.42L2035.59 662.07C2035.59 659.44 2034.25 658.13 2031.6 658.13ZM1138.46 634.45C1135.8 634.45 1134.47 635.76 1134.47 638.39L1134.47 709.42C1134.47 712.05 1135.8 713.37 1138.46 713.37C1141.11 713.37 1142.44 712.05 1142.44 709.42L1142.44 672.01L1142.44 666.01L1142.44 658.13L1142.44 638.39C1142.44 635.76 1141.11 634.45 1138.46 634.45ZM1158.4 658.13L1145.25 658.13L1145.25 666.01L1158.4 666.01C1160.65 666.01 1162.54 666.77 1164.07 668.29C1165.6 669.8 1166.37 671.68 1166.37 673.91L1166.37 709.42C1166.37 712.05 1167.69 713.37 1170.35 713.37C1173.02 713.37 1174.34 712.05 1174.34 709.42L1174.34 673.61C1174.34 669.34 1172.78 665.7 1169.66 662.67C1166.54 659.64 1162.78 658.13 1158.4 658.13ZM1062.69 634.45C1060.04 634.45 1058.71 635.76 1058.71 638.39L1058.71 658.13L1054.72 658.13C1052.06 658.13 1050.73 659.44 1050.73 662.07C1050.73 664.7 1052.06 666.01 1054.72 666.01L1058.71 666.01L1058.71 709.42C1058.71 712.05 1060.04 713.37 1062.69 713.37C1065.35 713.37 1066.68 712.05 1066.68 709.42L1066.68 675.64L1066.68 666.01L1066.68 658.13L1066.68 642.02L1066.68 638.39C1066.68 635.76 1065.35 634.45 1062.69 634.45ZM1078.64 658.13L1069.49 658.13L1069.49 666.01L1078.64 666.01C1081.3 666.01 1082.63 664.7 1082.63 662.07C1082.63 659.44 1081.3 658.13 1078.64 658.13ZM2117.27 666.07C2121.53 666.07 2125.58 667.21 2129.41 669.49C2129.93 669.8 2130.56 669.96 2131.28 669.96C2132.37 669.96 2133.31 669.57 2134.09 668.8C2134.88 668.02 2135.27 667.09 2135.27 666.01C2135.27 664.58 2134.57 663.42 2133.15 662.55C2128.49 659.64 2123.19 658.19 2117.27 658.19C2112.39 658.19 2108.33 659.26 2105.06 661.42C2101.27 663.88 2099.39 667.39 2099.39 671.93C2099.39 677.71 2102.07 681.88 2107.42 684.43L2117.92 689.43L2117.92 680.68L2110.62 677.2C2108.44 676.16 2107.36 674.41 2107.36 671.93C2107.36 668.03 2110.66 666.07 2117.27 666.07ZM2131.28 687.06L2120.73 682.02L2120.73 690.76L2127.9 694.18C2130.16 695.25 2131.28 697.05 2131.28 699.55C2131.28 703.5 2127.9 705.47 2121.14 705.47C2117.71 705.47 2114.18 705 2110.56 704.04C2108.06 703.13 2106.17 702.39 2104.89 701.83C2104.4 701.63 2103.89 701.53 2103.37 701.53C2102.28 701.53 2101.35 701.92 2100.56 702.7C2099.77 703.47 2099.39 704.4 2099.39 705.47C2099.39 706.99 2100.13 708.16 2101.62 709C2106.81 711.91 2113.24 713.37 2120.89 713.37C2126.05 713.37 2130.26 712.35 2133.52 710.31C2137.34 707.92 2139.26 704.34 2139.26 699.55C2139.26 693.78 2136.6 689.61 2131.28 687.06ZM1856.16 658.13C1850.64 658.13 1845.94 660.05 1842.05 663.89C1838.17 667.74 1836.23 672.39 1836.23 677.85L1836.23 697.59C1836.23 702.01 1837.76 705.74 1840.85 708.79C1843.92 711.85 1847.7 713.37 1852.17 713.37L1872.11 713.37C1874.77 713.37 1876.1 712.05 1876.1 709.42C1876.1 706.79 1874.77 705.47 1872.11 705.47L1852.17 705.47C1850 705.47 1848.13 704.7 1846.56 703.14C1844.98 701.59 1844.2 699.74 1844.2 697.59L1844.2 694.15L1844.2 689.69L1844.2 681.8L1844.2 677.85L1844.2 677.34L1844.29 677.34C1844.42 674.31 1845.5 671.66 1847.7 669.49C1850.04 667.17 1852.86 666.01 1856.16 666.01C1859.46 666.01 1862.28 667.17 1864.62 669.49C1866.96 671.79 1868.12 674.58 1868.12 677.85L1868.12 681.8L1847.01 681.8L1847.01 689.69L1876.1 689.69L1876.1 677.85C1876.1 672.32 1874.17 667.64 1870.33 663.84C1866.48 660.03 1861.76 658.13 1856.16 658.13ZM1758.83 703.14C1757.26 701.59 1756.47 699.74 1756.47 697.59L1756.47 662.07C1756.47 659.44 1755.14 658.13 1752.49 658.13C1749.83 658.13 1748.5 659.44 1748.5 662.07L1748.5 697.59C1748.5 702.01 1750.04 705.74 1753.12 708.79C1756.2 711.85 1759.97 713.37 1764.45 713.37L1777.59 713.37L1777.59 705.47L1764.45 705.47C1762.27 705.47 1760.4 704.7 1758.83 703.14ZM1784.38 658.13C1781.73 658.13 1780.4 659.44 1780.4 662.07L1780.4 694.4L1780.4 694.4L1780.4 713.37L1784.38 713.37C1787.05 713.37 1788.37 712.05 1788.37 709.42L1788.37 662.07C1788.37 659.44 1787.05 658.13 1784.38 658.13ZM1696.67 658.13L1676.73 658.13C1672.26 658.13 1668.48 659.65 1665.41 662.7C1662.32 665.74 1660.79 669.49 1660.79 673.91L1660.79 697.59C1660.79 701.97 1662.32 705.7 1665.41 708.76C1668.48 711.83 1672.26 713.37 1676.73 713.37L1689.82 713.37L1689.82 705.47L1676.73 705.47C1674.56 705.47 1672.69 704.7 1671.12 703.14C1669.54 701.59 1668.76 699.74 1668.76 697.59L1668.76 673.91C1668.76 671.72 1669.53 669.86 1671.09 668.32C1672.63 666.78 1674.52 666.01 1676.73 666.01L1692.68 666.01L1692.68 705.47L1692.63 705.47L1692.63 713.37L1692.68 713.37L1692.68 733.09C1692.68 735.73 1694.01 737.05 1696.67 737.05C1699.33 737.05 1700.66 735.73 1700.66 733.09L1700.66 662.07C1700.66 659.44 1699.33 658.13 1696.67 658.13Z" />
		<path id="Path 25" class="shp0" d="M1593 641.59C1590.34 641.59 1589.01 642.9 1589.01 645.53L1589.01 659.49L1596.99 651.59L1596.99 645.53C1596.99 642.9 1595.65 641.59 1593 641.59ZM1589.01 709.42C1589.01 712.05 1590.34 713.37 1593 713.37C1595.65 713.37 1596.99 712.05 1596.99 709.42L1596.99 656.77L1589.01 664.67L1589.01 709.42Z" />
		<path id="Path 26" class="shp1" d="M1485.35 662.07L1485.35 709.42C1485.35 712.05 1486.68 713.37 1489.33 713.37C1491.99 713.37 1493.32 712.05 1493.32 709.42L1493.32 666.01L1493.34 666.01L1493.34 658.12L1489.33 658.12C1486.68 658.12 1485.35 659.44 1485.35 662.07ZM1509.27 658.13L1496.16 658.13L1496.16 666.01L1509.27 666.01C1511.53 666.01 1513.42 666.77 1514.95 668.29C1516.48 669.8 1517.24 671.68 1517.24 673.91L1517.24 709.42C1517.24 712.05 1518.57 713.37 1521.23 713.37C1523.89 713.37 1525.22 712.05 1525.22 709.42L1525.22 673.91C1525.22 669.49 1523.67 665.74 1520.6 662.7C1517.51 659.65 1513.74 658.13 1509.27 658.13ZM1407.95 703.14C1406.38 701.59 1405.59 699.74 1405.59 697.59L1405.59 662.07C1405.59 659.44 1404.27 658.13 1401.61 658.13C1398.95 658.13 1397.62 659.44 1397.62 662.07L1397.62 697.59C1397.62 702.01 1399.16 705.74 1402.25 708.79C1405.32 711.85 1409.1 713.37 1413.57 713.37L1426.73 713.37L1426.73 705.47L1413.57 705.47C1411.4 705.47 1409.53 704.7 1407.95 703.14ZM1433.5 658.13C1430.85 658.13 1429.52 659.44 1429.52 662.07L1429.52 685.75L1429.54 685.75L1429.54 713.37L1433.5 713.37C1436.17 713.37 1437.5 712.05 1437.5 709.42L1437.5 662.07C1437.5 659.44 1436.17 658.13 1433.5 658.13ZM1242.12 658.13C1236.6 658.13 1231.9 660.05 1228.01 663.89C1224.13 667.74 1222.19 672.39 1222.19 677.85L1222.19 697.59C1222.19 702.01 1223.72 705.74 1226.81 708.79C1229.88 711.85 1233.66 713.37 1238.13 713.37L1258.07 713.37C1260.73 713.37 1262.06 712.05 1262.06 709.42C1262.06 706.79 1260.73 705.47 1258.07 705.47L1238.13 705.47C1235.96 705.47 1234.09 704.7 1232.52 703.14C1230.94 701.59 1230.16 699.74 1230.16 697.59L1230.16 694.81L1230.16 689.69L1230.16 681.8L1230.16 680.13L1230.16 677.85C1230.16 674.58 1231.33 671.79 1233.66 669.49C1236 667.17 1238.82 666.01 1242.12 666.01C1245.42 666.01 1248.24 667.17 1250.58 669.49C1252.92 671.79 1254.08 674.58 1254.08 677.85L1254.08 681.8L1232.97 681.8L1232.97 689.69L1262.06 689.69L1262.06 677.85C1262.06 672.32 1260.13 667.64 1256.29 663.84C1252.44 660.03 1247.72 658.13 1242.12 658.13Z" />
	</g>
</svg>